<?xml version="1.0" encoding="UTF-8" standalone="no"?>
<!DOCTYPE svg PUBLIC "-//W3C//DTD SVG 1.1//EN"
 "http://www.w3.org/Graphics/SVG/1.1/DTD/svg11.dtd">
<!-- Generated by graphviz version 2.40.1 (20161225.0304)
 -->
<!-- Title: sample&#45;aws Pages: 1 -->
<svg width="1027pt" height="369pt"
 viewBox="0.00 0.00 1026.50 369.00" xmlns="http://www.w3.org/2000/svg" xmlns:xlink="http://www.w3.org/1999/xlink">
<g id="graph0" class="graph" transform="scale(1 1) rotate(0) translate(4 365)">
<title>sample&#45;aws</title>
<polygon fill="#ffffff" stroke="transparent" points="-4,4 -4,-365 1022.5,-365 1022.5,4 -4,4"/>
<!-- _sqlx_migrations -->
<g id="node1" class="node">
<title>_sqlx_migrations</title>
<polygon fill="#efefef" stroke="transparent" points="43,-252.5 43,-287.5 319,-287.5 319,-252.5 43,-252.5"/>
<polygon fill="none" stroke="#000000" points="43,-252.5 43,-287.5 319,-287.5 319,-252.5 43,-252.5"/>
<text text-anchor="start" x="49.7097" y="-265.3" font-family="Arial Bold" font-size="18.00" fill="#000000">_sqlx_migrations</text>
<text text-anchor="start" x="184.7223" y="-265.3" font-family="Arial" font-size="14.00" fill="#000000">    </text>
<text text-anchor="start" x="218.9271" y="-265.3" font-family="Arial" font-size="14.00" fill="#666666">[BASE TABLE]</text>
<polygon fill="none" stroke="#000000" points="43,-222.5 43,-252.5 319,-252.5 319,-222.5 43,-222.5"/>
<text text-anchor="start" x="50" y="-233.9" font-family="Arial" font-size="14.00" fill="#000000">version    </text>
<text text-anchor="start" x="129.3198" y="-233.9" font-family="Arial" font-size="14.00" fill="#666666">[bigint]</text>
<polygon fill="none" stroke="#000000" points="43,-192.5 43,-222.5 319,-222.5 319,-192.5 43,-192.5"/>
<text text-anchor="start" x="50" y="-203.9" font-family="Arial" font-size="14.00" fill="#000000">description    </text>
<text text-anchor="start" x="151.8822" y="-203.9" font-family="Arial" font-size="14.00" fill="#666666">[text]</text>
<polygon fill="none" stroke="#000000" points="43,-162.5 43,-192.5 319,-192.5 319,-162.5 43,-162.5"/>
<text text-anchor="start" x="50" y="-173.9" font-family="Arial" font-size="14.00" fill="#000000">installed_on    </text>
<text text-anchor="start" x="158.8934" y="-173.9" font-family="Arial" font-size="14.00" fill="#666666">[timestamp]</text>
<polygon fill="none" stroke="#000000" points="43,-132.5 43,-162.5 319,-162.5 319,-132.5 43,-132.5"/>
<text text-anchor="start" x="50" y="-143.9" font-family="Arial" font-size="14.00" fill="#000000">success    </text>
<text text-anchor="start" x="134.77" y="-143.9" font-family="Arial" font-size="14.00" fill="#666666">[tinyint(1)]</text>
<polygon fill="none" stroke="#000000" points="43,-102.5 43,-132.5 319,-132.5 319,-102.5 43,-102.5"/>
<text text-anchor="start" x="50" y="-113.9" font-family="Arial" font-size="14.00" fill="#000000">checksum    </text>
<text text-anchor="start" x="147.2132" y="-113.9" font-family="Arial" font-size="14.00" fill="#666666">[blob]</text>
<polygon fill="none" stroke="#000000" points="43,-72.5 43,-102.5 319,-102.5 319,-72.5 43,-72.5"/>
<text text-anchor="start" x="50" y="-83.9" font-family="Arial" font-size="14.00" fill="#000000">execution_time    </text>
<text text-anchor="start" x="178.338" y="-83.9" font-family="Arial" font-size="14.00" fill="#666666">[bigint]</text>
</g>
<!-- example -->
<g id="node2" class="node">
<title>example</title>
<polygon fill="#efefef" stroke="transparent" points="424,-192.5 424,-227.5 633,-227.5 633,-192.5 424,-192.5"/>
<polygon fill="none" stroke="#000000" points="424,-192.5 424,-227.5 633,-227.5 633,-192.5 424,-192.5"/>
<text text-anchor="start" x="430.7104" y="-205.3" font-family="Arial Bold" font-size="18.00" fill="#000000">example</text>
<text text-anchor="start" x="498.7216" y="-205.3" font-family="Arial" font-size="14.00" fill="#000000">    </text>
<text text-anchor="start" x="532.9264" y="-205.3" font-family="Arial" font-size="14.00" fill="#666666">[BASE TABLE]</text>
<polygon fill="none" stroke="#000000" points="424,-162.5 424,-192.5 633,-192.5 633,-162.5 424,-162.5"/>
<text text-anchor="start" x="431" y="-173.9" font-family="Arial" font-size="14.00" fill="#000000">example_id    </text>
<text text-anchor="start" x="536.7742" y="-173.9" font-family="Arial" font-size="14.00" fill="#666666">[char(36)]</text>
<polygon fill="none" stroke="#000000" points="424,-132.5 424,-162.5 633,-162.5 633,-132.5 424,-132.5"/>
<text text-anchor="start" x="431" y="-143.9" font-family="Arial" font-size="14.00" fill="#000000">created_at    </text>
<text text-anchor="start" x="531.3422" y="-143.9" font-family="Arial" font-size="14.00" fill="#666666">[bigint]</text>
</g>
<!-- user -->
<g id="node3" class="node">
<title>user</title>
<polygon fill="#efefef" stroke="transparent" points="737,-282.5 737,-317.5 976,-317.5 976,-282.5 737,-282.5"/>
<polygon fill="none" stroke="#000000" points="737,-282.5 737,-317.5 976,-317.5 976,-282.5 737,-282.5"/>
<text text-anchor="start" x="775.2137" y="-295.3" font-family="Arial Bold" font-size="18.00" fill="#000000">user</text>
<text text-anchor="start" x="810.2183" y="-295.3" font-family="Arial" font-size="14.00" fill="#000000">    </text>
<text text-anchor="start" x="844.4231" y="-295.3" font-family="Arial" font-size="14.00" fill="#666666">[BASE TABLE]</text>
<polygon fill="none" stroke="#000000" points="737,-252.5 737,-282.5 976,-282.5 976,-252.5 737,-252.5"/>
<text text-anchor="start" x="744" y="-263.9" font-family="Arial" font-size="14.00" fill="#000000">user_id    </text>
<text text-anchor="start" x="824.1024" y="-263.9" font-family="Arial" font-size="14.00" fill="#666666">[char(36)]</text>
<polygon fill="none" stroke="#000000" points="737,-222.5 737,-252.5 976,-252.5 976,-222.5 737,-222.5"/>
<text text-anchor="start" x="743.7125" y="-233.9" font-family="Arial" font-size="14.00" fill="#000000">auth_provider_id    </text>
<text text-anchor="start" x="882.1683" y="-233.9" font-family="Arial" font-size="14.00" fill="#666666">[varchar(255)]</text>
<polygon fill="none" stroke="#000000" points="737,-192.5 737,-222.5 976,-222.5 976,-192.5 737,-192.5"/>
<text text-anchor="start" x="744" y="-203.9" font-family="Arial" font-size="14.00" fill="#000000">name    </text>
<text text-anchor="start" x="813.2132" y="-203.9" font-family="Arial" font-size="14.00" fill="#666666">[varchar(255)]</text>
<polygon fill="none" stroke="#000000" points="737,-162.5 737,-192.5 976,-192.5 976,-162.5 737,-162.5"/>
<text text-anchor="start" x="744" y="-173.9" font-family="Arial" font-size="14.00" fill="#000000">birthday    </text>
<text text-anchor="start" x="827.993" y="-173.9" font-family="Arial" font-size="14.00" fill="#666666">[bigint]</text>
<polygon fill="none" stroke="#000000" points="737,-132.5 737,-162.5 976,-162.5 976,-132.5 737,-132.5"/>
<text text-anchor="start" x="744" y="-143.9" font-family="Arial" font-size="14.00" fill="#000000">email    </text>
<text text-anchor="start" x="811.6438" y="-143.9" font-family="Arial" font-size="14.00" fill="#666666">[varchar(255)]</text>
<polygon fill="none" stroke="#000000" points="737,-102.5 737,-132.5 976,-132.5 976,-102.5 737,-102.5"/>
<text text-anchor="start" x="744" y="-113.9" font-family="Arial" font-size="14.00" fill="#000000">created_at    </text>
<text text-anchor="start" x="844.3422" y="-113.9" font-family="Arial" font-size="14.00" fill="#666666">[bigint]</text>
<polygon fill="none" stroke="#000000" points="737,-72.5 737,-102.5 976,-102.5 976,-72.5 737,-72.5"/>
<text text-anchor="start" x="744" y="-83.9" font-family="Arial" font-size="14.00" fill="#000000">updated_at    </text>
<text text-anchor="start" x="848.2468" y="-83.9" font-family="Arial" font-size="14.00" fill="#666666">[bigint]</text>
<polygon fill="none" stroke="#000000" points="737,-42.5 737,-72.5 976,-72.5 976,-42.5 737,-42.5"/>
<text text-anchor="start" x="744" y="-53.9" font-family="Arial" font-size="14.00" fill="#000000">is_deleted    </text>
<text text-anchor="start" x="842.0042" y="-53.9" font-family="Arial" font-size="14.00" fill="#666666">[tinyint(1)]</text>
</g>
</g>
</svg>
